<?xml version="1.0" encoding="UTF-8"?>
<svg width="504px" height="504px" viewBox="0 0 504 504" version="1.1" xmlns="http://www.w3.org/2000/svg" xmlns:xlink="http://www.w3.org/1999/xlink">
    <title>noun-telegram-2386603</title>
    <g id="页面-1" stroke="none" stroke-width="1" fill="none" fill-rule="evenodd">
        <g id="noun-telegram-2386603" transform="translate(0.001000, 0.000000)" fill="#000000" fill-rule="nonzero">
            <path d="M380.8,0 C447.999,0 504,56 504,123.2 L504,380.8 C504,447.999 448,504 380.8,504 L123.2,504 C56.001,504 -2.84217094e-14,448 -2.84217094e-14,380.8 L-2.84217094e-14,123.2 C-2.84217094e-14,56.001 56,0 123.2,0 L380.8,0 Z M386.398,134.398 C386.398,134.398 296.798,173.599 117.598,240.798 L117.598,240.798 L117.658639,240.828251 C118.967376,241.480315 141.51294,252.67394 190.399,274.4 L190.399,274.4 C190.4,274.402 240.801,246.402 336,184.8 L336,184.8 L229.6,291.2 C229.6,291.2 263.199,313.598 336,369.598 C336,369.598 352.796,291.198 386.398,134.398 Z" id="形状"></path>
        </g>
    </g>
</svg>